# xmcd
#
# Track frame offsets:
#	150
#	15459
#	35648
#	58515
#	73521
#	90846
#	113824
#	136099
#	156758
#	174299
#	193664
#
# Disc length: 2864 seconds
#
# Revision: 0
# Processed by: cddbd v1.5.2PL0 Copyright (c) Steve Scherf et al.
# Submitted via: dBpowerAMP V4.0
#
DISCID=810b2e0b
DTITLE=Pete Gavin and Shanghai Blues Gang - Shanghai Blues
DYEAR=2007
DGENRE=Blues
TTITLE0=32-20 blues
TTITLE1=take this hammer
TTITLE2=houndd dog dream
TTITLE3=death letter blues
TTITLE4=love and desire
TTITLE5=mo jo boogie
TTITLE6=kind hearted woman
TTITLE7=pater noster boogie
TTITLE8=bring it on home
TTITLE9=railroad blues
TTITLE10=still stop the traffic
EXTD=
EXTT0=
EXTT1=
EXTT2=
EXTT3=
EXTT4=
EXTT5=
EXTT6=
EXTT7=
EXTT8=
EXTT9=
EXTT10=
PLAYORDER=
